<?xml version="1.0" encoding="UTF-8"?>
<svg id="Layer_2" data-name="Layer 2" xmlns="http://www.w3.org/2000/svg" viewBox="0 0 1029.28 347.64">
  <defs>
    <style>
      .cls-1 {
        stroke-width: 0px;
      }
    </style>
  </defs>
  <g id="Layer_1-2" data-name="Layer 1">
    <g>
      <g>
        <path class="cls-1" d="m80.95,120.12c6.86,3.36,12.12,8.08,15.77,14.16,3.65,6.08,5.47,13.21,5.47,21.39,0,2.82-.34,6.38-1.02,10.66-1.75,10.02-5.52,18.93-11.31,26.71-5.79,7.79-13.14,13.82-22.04,18.1-8.9,4.28-18.71,6.42-29.42,6.42H0l18.1-102.48h38.39c9.44,0,17.59,1.68,24.45,5.04Zm-16.86,68.25c6.23-5.26,10.12-12.6,11.68-22.04.49-2.92.73-5.35.73-7.3,0-7.2-2.19-12.77-6.57-16.71s-10.61-5.91-18.69-5.91h-11.97l-10.51,59.85h11.82c9.44,0,17.27-2.63,23.5-7.88Z"/>
        <path class="cls-1" d="m138.1,136.1l-14.31,81.46h-24.96l14.31-81.46h24.96Zm-20.07-11.61c-2.29-2.09-3.43-4.74-3.43-7.96,0-4.38,1.7-8.12,5.11-11.24,3.41-3.11,7.54-4.67,12.41-4.67,3.89,0,6.96,1.05,9.2,3.14,2.24,2.09,3.36,4.79,3.36,8.1,0,4.28-1.7,7.98-5.11,11.09-3.41,3.12-7.5,4.67-12.26,4.67-3.89,0-6.98-1.04-9.27-3.14Z"/>
        <path class="cls-1" d="m273.64,142.16c4.91,4.62,7.37,11.07,7.37,19.34,0,2.53-.29,5.35-.88,8.47l-8.47,47.59h-24.82l7.88-44.23c.19-.97.29-2.29.29-3.94,0-4.09-1.15-7.2-3.43-9.34-2.29-2.14-5.47-3.21-9.56-3.21-4.87,0-8.96,1.44-12.26,4.31-3.31,2.87-5.4,6.93-6.28,12.19l-7.88,44.23h-24.82l7.88-44.23c.19-.97.29-2.29.29-3.94,0-4.09-1.15-7.2-3.43-9.34-2.29-2.14-5.47-3.21-9.56-3.21-4.87,0-8.96,1.44-12.26,4.31-3.31,2.87-5.4,6.93-6.28,12.19v-.73l-7.88,44.96h-24.96l14.31-81.46h24.96l-1.75,10.36c3.11-3.5,6.88-6.25,11.31-8.25,4.43-1.99,9.22-2.99,14.38-2.99,6.23,0,11.51,1.31,15.84,3.94,4.33,2.63,7.42,6.42,9.27,11.39,3.6-4.57,8.08-8.27,13.43-11.09,5.35-2.82,10.95-4.23,16.79-4.23,8.76,0,15.6,2.31,20.51,6.93Z"/>
        <path class="cls-1" d="m321.16,136.1l-14.31,81.46h-24.96l14.31-81.46h24.96Zm-20.07-11.61c-2.29-2.09-3.43-4.74-3.43-7.96,0-4.38,1.7-8.12,5.11-11.24,3.41-3.11,7.54-4.67,12.41-4.67,3.89,0,6.96,1.05,9.2,3.14,2.24,2.09,3.36,4.79,3.36,8.1,0,4.28-1.7,7.98-5.11,11.09-3.41,3.12-7.5,4.67-12.26,4.67-3.89,0-6.98-1.04-9.27-3.14Z"/>
        <path class="cls-1" d="m351.52,189.53c-.1.49-.15,1.12-.15,1.9,0,1.75.51,3.02,1.53,3.8,1.02.78,2.7,1.17,5.04,1.17h8.91l-3.8,21.17h-12.7c-16.35,0-24.53-6.86-24.53-20.58,0-2.04.24-4.62.73-7.74l5.84-32.41h-9.93l3.65-20.73h9.93l3.5-19.85h24.96l-3.5,19.85h16.35l-3.65,20.73h-16.35l-5.84,32.7Z"/>
        <path class="cls-1" d="m419.33,139.39c4.91-2.77,10.05-4.16,15.4-4.16l-4.67,26.42h-6.86c-6.23,0-11.14,1.34-14.74,4.01-3.6,2.68-5.99,7.37-7.15,14.09l-6.72,37.81h-24.96l14.31-81.46h24.96l-2.63,14.74c3.8-4.87,8.15-8.69,13.07-11.46Z"/>
        <path class="cls-1" d="m464.07,136.1l-14.31,81.46h-24.96l14.31-81.46h24.96Zm-20.07-11.61c-2.29-2.09-3.43-4.74-3.43-7.96,0-4.38,1.7-8.12,5.11-11.24,3.4-3.11,7.54-4.67,12.41-4.67,3.89,0,6.96,1.05,9.2,3.14,2.24,2.09,3.36,4.79,3.36,8.1,0,4.28-1.71,7.98-5.11,11.09-3.41,3.12-7.5,4.67-12.26,4.67-3.89,0-6.98-1.04-9.27-3.14Z"/>
        <path class="cls-1" d="m500.64,211.36c-6.96-4.82-10.44-11.65-10.44-20.51,0-.88.1-2.19.29-3.94h25.99c-.29,3.7.58,6.62,2.63,8.76,2.04,2.14,5.16,3.21,9.34,3.21,3.8,0,6.79-.83,8.98-2.48,2.19-1.65,3.28-3.99,3.28-7.01s-1.39-5.64-4.16-7.59c-2.77-1.95-7.08-4.14-12.92-6.57-5.65-2.34-10.24-4.55-13.79-6.64-3.55-2.09-6.64-4.94-9.27-8.54-2.63-3.6-3.94-8.12-3.94-13.58-.1-6.72,1.56-12.55,4.96-17.52,3.41-4.96,8.12-8.76,14.16-11.39,6.03-2.63,12.94-3.94,20.73-3.94,7.01,0,13.23,1.09,18.69,3.28,5.45,2.19,9.68,5.35,12.7,9.49,3.01,4.14,4.53,9.03,4.53,14.67,0,1.46-.05,2.53-.15,3.21h-26.57c.1-.39.15-.97.15-1.75,0-2.72-.95-4.94-2.85-6.64-1.9-1.7-4.5-2.55-7.81-2.55-3.5,0-6.35.85-8.54,2.55-2.19,1.7-3.29,4.01-3.29,6.93s1.36,5.38,4.09,7.37c2.72,2,6.96,4.31,12.7,6.93,5.74,2.63,10.44,5.06,14.09,7.3,3.65,2.24,6.79,5.23,9.42,8.98,2.63,3.75,3.94,8.35,3.94,13.8,0,6.04-1.61,11.44-4.82,16.2-3.21,4.77-7.84,8.49-13.87,11.17-6.04,2.68-13.09,4.01-21.17,4.01-11.09,0-20.12-2.41-27.08-7.23Z"/>
        <path class="cls-1" d="m609.76,136.1l-14.31,81.46h-24.96l14.31-81.46h24.96Zm-20.07-11.61c-2.29-2.09-3.43-4.74-3.43-7.96,0-4.38,1.7-8.12,5.11-11.24,3.41-3.11,7.54-4.67,12.41-4.67,3.89,0,6.96,1.05,9.2,3.14,2.24,2.09,3.36,4.79,3.36,8.1,0,4.28-1.7,7.98-5.11,11.09-3.41,3.12-7.5,4.67-12.26,4.67-3.89,0-6.98-1.04-9.27-3.14Z"/>
        <path class="cls-1" d="m666.4,138.44c3.99,2.34,6.76,5.4,8.32,9.2l2.04-11.53h24.96l-14.31,81.31c-1.36,7.49-4.07,14.28-8.1,20.36-4.04,6.08-9.44,10.92-16.2,14.53-6.77,3.6-14.62,5.4-23.58,5.4-12.07,0-21.36-2.85-27.88-8.54-6.52-5.69-9.44-13.41-8.76-23.14h24.67c.29,3.11,1.73,5.57,4.31,7.37,2.58,1.8,6.01,2.7,10.29,2.7,5.16,0,9.54-1.49,13.14-4.45,3.6-2.97,5.99-7.71,7.15-14.23l2.04-11.53c-3.12,3.8-7.03,6.89-11.75,9.27-4.72,2.39-9.95,3.58-15.69,3.58s-10.83-1.31-15.25-3.94c-4.43-2.63-7.88-6.37-10.37-11.24-2.48-4.87-3.72-10.56-3.72-17.08,0-3.02.29-6.28.88-9.78,1.46-8.37,4.33-15.72,8.61-22.04,4.28-6.33,9.44-11.19,15.47-14.6,6.03-3.41,12.41-5.11,19.12-5.11,5.74,0,10.61,1.17,14.6,3.5Zm3.65,33.58c0-4.77-1.39-8.52-4.16-11.24-2.77-2.72-6.3-4.09-10.58-4.09-4.96,0-9.49,1.78-13.58,5.33-4.09,3.55-6.67,8.44-7.74,14.67-.29,1.75-.44,3.36-.44,4.82,0,4.77,1.39,8.54,4.16,11.31,2.77,2.77,6.25,4.16,10.44,4.16,4.96,0,9.49-1.8,13.58-5.4,4.09-3.6,6.71-8.51,7.88-14.74.29-1.75.44-3.36.44-4.82Z"/>
        <path class="cls-1" d="m781.43,142.09c4.67,4.58,7.01,10.95,7.01,19.12,0,2.73-.29,5.65-.88,8.76l-8.47,47.59h-24.82l7.88-44.23c.29-1.65.44-3.11.44-4.38,0-4.09-1.14-7.25-3.43-9.49-2.29-2.24-5.47-3.36-9.56-3.36-4.87,0-8.96,1.51-12.26,4.53-3.31,3.02-5.45,7.25-6.42,12.7v-.73l-7.88,44.96h-24.96l14.31-81.46h24.96l-1.9,10.95c3.21-3.6,7.13-6.47,11.75-8.61,4.62-2.14,9.61-3.21,14.96-3.21,8.17,0,14.6,2.29,19.27,6.86Z"/>
        <path class="cls-1" d="m865.01,143.48c6.18,5.69,9.27,13.46,9.27,23.28,0,3.21-.24,6.08-.73,8.61-.39,2.24-.97,4.62-1.75,7.15h-56.5c-.1.58-.15,1.51-.15,2.77,0,4.28,1.17,7.54,3.5,9.78,2.33,2.24,5.45,3.36,9.34,3.36,6.23,0,11-2.63,14.31-7.88h26.57c-3.5,8.27-9.2,15.04-17.08,20.29-7.88,5.25-16.74,7.88-26.57,7.88-10.51,0-18.9-2.92-25.18-8.76-6.28-5.84-9.42-13.77-9.42-23.8,0-3.02.29-6.13.88-9.34,1.46-8.47,4.48-15.86,9.05-22.19,4.57-6.33,10.27-11.19,17.08-14.6,6.81-3.41,14.26-5.11,22.34-5.11,10.51,0,18.85,2.85,25.04,8.54Zm-15.69,23.58c0-3.89-1.22-6.88-3.65-8.98-2.43-2.09-5.64-3.14-9.63-3.14-4.28,0-8.05,1.29-11.31,3.87-3.26,2.58-5.62,6.25-7.08,11.02h31.39c.19-1.36.29-2.29.29-2.77Z"/>
      </g>
      <path class="cls-1" d="m1029.28,0l-61.3,347.64H397.09l14.56-82.6h10.16,0c-6.68,37.88,22.46,72.6,60.92,72.6h476.86l39.75-225.47c9.4-53.31-31.61-102.17-85.74-102.17h-446.83l-11.42,64.79c-3.82.57-7.39,1.65-10.73,3.26L458.39,0h570.89Z"/>
    </g>
  </g>
</svg>